<svg width="23" height="22" viewBox="0 0 23 22" fill="none" xmlns="http://www.w3.org/2000/svg">
<path d="M10.12 21.68C9.85333 21.68 9.62667 21.5867 9.44 21.4C9.25333 21.2133 9.16 20.9867 9.16 20.72V12.92H1.48C1.21333 12.92 0.986667 12.8267 0.8 12.64C0.613333 12.4533 0.52 12.2267 0.52 11.96V9.84C0.52 9.54667 0.613333 9.32 0.8 9.16C0.986667 8.97333 1.21333 8.88 1.48 8.88H9.16V1.28C9.16 1.01333 9.25333 0.786666 9.44 0.6C9.62667 0.413332 9.85333 0.319999 10.12 0.319999H12.44C12.7333 0.319999 12.96 0.413332 13.12 0.6C13.3067 0.786666 13.4 1.01333 13.4 1.28V8.88H21.08C21.3467 8.88 21.5733 8.97333 21.76 9.16C21.9467 9.32 22.04 9.54667 22.04 9.84V11.96C22.04 12.2267 21.9467 12.4533 21.76 12.64C21.5733 12.8267 21.3467 12.92 21.08 12.92H13.4V20.72C13.4 20.9867 13.3067 21.2133 13.12 21.4C12.96 21.5867 12.7333 21.68 12.44 21.68H10.12Z" fill="#27AE60"/>
</svg>
